# AST/ASF file generated using VICON BodyLanguage
# -----------------------------------------------
:version 1.10
:name VICON
:units
  mass 1.0
  length 0.45
  angle deg
:documentation
   .ast/.asf automatically generated from VICON data using
   VICON BodyBuilder and BodyLanguage model FoxedUp or BRILLIANT.MOD
:root
   order TX TY TZ RX RY RZ
   axis XYZ
   position 0 0 0  
   orientation 0 0 0 
:bonedata
  begin
     id 1 
     name lhipjoint
     direction 0.643824 -0.71708 0.266994 
     length 2.52133 
     axis 0 0 0  XYZ
  end
  begin
     id 2 
     name lfemur
     direction 0.34202 -0.939693 0  
     length 7.51824  
     axis 0 0 20  XYZ
    dof rx ry rz
    limits (-160.0 20.0)
           (-70.0 70.0)
           (-60.0 70.0)
  end
  begin
     id 3 
     name ltibia
     direction 0.34202 -0.939693 0   
     length 7.3685   
     axis 0 0 20   XYZ
    dof rx
    limits (-10.0 170.0)
  end
  begin
     id 4 
     name lfoot
     direction 0.105419 -0.289636 0.951314   
     length 2.20972   
     axis -90 7.62852e-016 20   XYZ
    dof rx rz
    limits (-45.0 90.0)
           (-70.0 20.0)
  end
  begin
     id 5 
     name ltoes
     direction 1.53549e-011 -4.21833e-011 1   
     length 1.10139   
     axis -90 7.62852e-016 20   XYZ
    dof rx
    limits (-90.0 20.0)
  end
  begin
     id 6 
     name rhipjoint
     direction -0.608823 -0.743445 0.276811   
     length 2.43192  
     axis 0 0 0  XYZ 
  end
  begin
     id 7 
     name rfemur
     direction -0.34202 -0.939693 0   
     length 7.69715   
     axis 0 0 -20   XYZ
    dof rx ry rz
    limits (-160.0 20.0)
           (-70.0 70.0)
           (-70.0 60.0)
  end
  begin
     id 8 
     name rtibia
     direction -0.34202 -0.939693 0   
     length 7.44924   
     axis 0 0 -20   XYZ
    dof rx
    limits (-10.0 170.0)
 end
 begin
     id 9 
     name rfoot
     direction -0.103614 -0.284677 0.953007   
     length 2.22623  
     axis -90 -7.62852e-016 -20   XYZ
    dof rx rz
    limits (-45.0 90.0)
           (-20.0 70.0)
  end
  begin
     id 10 
     name rtoes
     direction -1.53537e-011 -4.22026e-011 1   
     length 1.11   
     axis -90 -7.62852e-016 -20   XYZ
    dof rx
    limits (-90.0 20.0)
  end
  begin
     id 11 
     name lowerback
     direction -0.0101212 0.99662 -0.0815298   
     length 2.08277   
     axis 0 0 0   XYZ
    dof rx ry rz
    limits (-20.0 45.0)
           (-30.0 30.0)
           (-30.0 30.0)
  end
  begin
     id 12 
     name upperback
     direction 0.024314 0.999591 -0.0150645   
     length 2.08524   
     axis 0 0 0   XYZ
    dof rx ry rz
    limits (-20.0 45.0)
           (-30.0 30.0)
           (-30.0 30.0)
  end
  begin
     id 13 
     name thorax
     direction 0.0285959 0.999323 0.0231357   
     length 2.09645   
     axis 0 0 0   XYZ
    dof rx ry rz
    limits (-20.0 45.0)
           (-30.0 30.0)
           (-30.0 30.0)
  end
  begin
     id 14 
     name lowerneck
     direction -0.065512 0.979301 0.191515   
     length 1.63798   
     axis 0 0 0   XYZ
    dof rx ry rz
    limits (-20.0 45.0)
           (-30.0 30.0)
           (-30.0 30.0)
  end
  begin
     id 15 
     name upperneck
     direction 0.0498479 0.98191 -0.182667   
     length 1.68731   
     axis 0 0 0   XYZ
    dof rx ry rz
    limits (-20.0 45.0)
           (-30.0 30.0)
           (-30.0 30.0)
  end
  begin
     id 16
     name head
     direction 0.0230358 0.996257 -0.0833175  
     length 1.69785  
     axis 0 0 0   XYZ
    dof rx ry rz
    limits (-20.0 45.0)
           (-30.0 30.0)
           (-30.0 30.0)
  end
  begin
     id 17 
     name lclavicle
     direction 0.967963 0.201165 -0.150269  
     length 3.63976  
     axis 0 0 0   XYZ
    dof ry rz
    limits (-20.0 10.0)
           (0.0 20.0)
  end
  begin
     id 18 
     name lhumerus
     direction 1 -4.48954e-011 -2.92837e-028   
     length 5.32462   
     axis 180 -30 -90   XYZ
    dof rx ry rz
    limits (-60.0 90.0)
           (-90.0 90.0)
           (-90.0 90.0)
  end
  begin
     id 19
     name lradius
     direction 1 -4.48958e-011 -6.39511e-027   
     length 3.48402   
     axis 180 -30 -90   XYZ
    dof rx
    limits (-10.0 170.0)
  end
  begin
     id 20
     name lwrist
     direction 1 -4.48975e-011 -1.1413e-026   
     length 1.74201   
     axis 6.88575e-015 90 90   XYZ
    dof ry
    limits (-180.0 0.0)
 end
  begin
     id 21 
     name lhand
     direction 1 -4.48899e-011 -2.28192e-026   
     length 0.572476   
     axis 1.45643e-014 90 90   XYZ
    dof rx rz
    limits (-90.0 90.0)
           (-45.0 45.0)
  end
  begin
     id 22 
     name lfingers
     direction 1 -4.49155e-011 -4.5684e-026   
     length 0.461545   
     axis 2.91283e-014 90 90   XYZ
    dof rx
    limits (0.0 90.0)
  end
  begin
     id 23
     name lthumb
     direction 0.707107 -6.34943e-011 0.707107   
     length 0.662688   
     axis -90 45 -2.25915e-014   XYZ
    dof rx rz
    limits (-45.0 45.0)
           (-45.0 45.0)
  end
  begin
     id 24 
     name rclavicle
     direction -0.964103 0.264019 -0.0282629   
     length 3.54491  
     axis 0 0 0   XYZ 
    dof ry rz
    limits (-10.0 20.0)
           (-20.0 0.0)
  end
  begin
     id 25 
     name rhumerus
     direction -1 -4.48964e-011 -2.45032e-027  
     length 5.33589   
     axis 180 30 90   XYZ
    dof rx ry rz
    limits (-90.0 60.0)
           (-90.0 90.0)
           (-90.0 90.0)
  end
  begin
     id 26 
     name rradius
     direction -1 -4.48987e-011 -1.55093e-027   
     length 3.64134   
     axis 180 30 90   XYZ
    dof rx
    limits (-10.0 170.0)
  end
  begin
     id 27 
     name rwrist
     direction -1 -4.4897e-011 -1.14128e-026   
     length 1.82067   
     axis 6.88575e-015 -90 -90   XYZ
    dof ry
    limits (-180.0 0.0)
  end
  begin
     id 28
     name rhand
     direction -1 -4.49021e-011 -2.28301e-026   
     length 0.734811   
     axis 1.45643e-014 -90 -90   XYZ
    dof rx rz
    limits (-90.0 90.0)
           (-45.0 45.0)
  end
  begin
     id 29
     name rfingers
     direction -1 -4.48862e-011 -4.56319e-026   
     length 0.592424   
     axis 2.91283e-014 -90 -90   XYZ
    dof rx
    limits (0.0 90.0)
  end
  begin
     id 30
     name rthumb
     direction -0.707107 -6.34978e-011 0.707107   
     length 0.850605   
     axis -90 -45 2.25915e-014   XYZ
    dof rx rz
    limits (-45.0 45.0)
           (-45.0 45.0)
  end
:hierarchy
  begin
    root lhipjoint rhipjoint lowerback
    lhipjoint lfemur
    lfemur ltibia
    ltibia lfoot
    lfoot ltoes
    rhipjoint rfemur
    rfemur rtibia
    rtibia rfoot
    rfoot rtoes
    lowerback upperback
    upperback thorax
    thorax lowerneck lclavicle rclavicle
    lowerneck upperneck
    upperneck head
    lclavicle lhumerus
    lhumerus lradius
    lradius lwrist
    lwrist lhand lthumb
    lhand lfingers
    rclavicle rhumerus
    rhumerus rradius
    rradius rwrist
    rwrist rhand rthumb
    rhand rfingers
  end

#!OML:ASF F:\VICON\USERDATA\INSTALL\rory3\rory3.ASF
:FULLY-SPECIFIED
:DEGREES
335
root -0.970339 18.9216 -0.71734 1.53555 2.52967 -0.0712287
lowerback 4.97056 -1.03563 -2.18171
upperback -0.560641 -1.42445 2.74076
thorax -3.24487 -0.646032 4.17225
lowerneck -28.8603 -2.72071 -9.22044
upperneck 22.9517 -1.22205 4.8561
head 12.4725 -0.692811 3.16012
rclavicle 3.10601e-015 3.4191e-014
rhumerus -28.453 -28.0378 -44.5502
rradius 42.318
rwrist 6.58844
rhand -32.3 0.529129
rfingers 7.12502
rthumb -5.53836 -29.3785
lclavicle 3.10601e-015 3.4191e-014
lhumerus -30.548 33.0671 44.797
lradius 39.621
lwrist 25.7768
lhand -20.0612 38.9935
lfingers 7.12502
lthumb 6.28075 68.8804
rfemur -15.9146 -1.08399 15.3558
rtibia 40.7998
rfoot 12.5307 -7.12407
rtoes 18.9788
lfemur -13.7574 3.96871 -16.2246
ltibia 35.1084
lfoot 17.5368 -12.7914
ltoes -22.7001
336
root -0.955235 19.0495 -0.689972 1.62845 2.64841 -0.0856974
lowerback 4.65209 -1.09011 -2.09363
upperback -0.728124 -1.48555 2.79751
thorax -3.23428 -0.675501 4.18026
lowerneck -28.5588 -2.70061 -9.3591
upperneck 23.1449 -1.18499 4.9122
head 12.4921 -0.688053 3.21478
rclavicle -3.13334e-014 5.56597e-014
rhumerus -27.4775 -27.9993 -42.4314
rradius 43.0693
rwrist 5.83083
rhand -32.7194 -0.34692
rfingers 7.12502
rthumb -5.94332 -30.2436
lclavicle -3.13334e-014 5.56597e-014
lhumerus -30.037 32.4887 42.6515
lradius 40.3687
lwrist 25.5568
lhand -20.3344 38.643
lfingers 7.12502
lthumb 6.01698 68.5375
rfemur -15.5775 -1.41021 14.9292
rtibia 39.682
rfoot 12.8527 -7.72751
rtoes 19.2379
lfemur -13.5118 3.85107 -15.8459
ltibia 34.1249
lfoot 17.4991 -13.0094
ltoes -25.1006
337
root -0.941896 19.1646 -0.670216 1.77147 2.87112 0.0700544
lowerback 4.49256 -1.14723 -2.18152
upperback -0.974396 -1.56193 2.83039
thorax -3.38973 -0.705044 4.27032
lowerneck -28.4077 -2.7191 -9.4654
upperneck 23.4954 -1.16704 4.8491
head 12.6036 -0.708438 3.2187
rclavicle 8.69683e-015 -1.11319e-014
rhumerus -26.5113 -28.0189 -40.2542
rradius 43.9315
rwrist 5.15801
rhand -33.6595 -2.20318
rfingers 7.12502
rthumb -6.85085 -32.0723
lclavicle 8.69683e-015 -1.11319e-014
lhumerus -29.3024 31.9926 40.6288
lradius 41
lwrist 25.0953
lhand -19.8844 38.2847
lfingers 7.12502
lthumb 6.4514 68.1664
rfemur -15.3169 -1.77779 14.2957
rtibia 38.7808
rfoot 12.1655 -7.65065
rtoes 18.5333
lfemur -13.4464 3.79767 -15.6827
ltibia 33.5412
lfoot 16.3298 -13.4155
ltoes -29.0255
338
root -0.925823 19.2704 -0.652233 1.93621 3.04242 0.119365
lowerback 4.2211 -1.19551 -2.09887
upperback -1.16246 -1.61535 2.88977
thorax -3.42727 -0.72938 4.28499
lowerneck -28.4034 -2.80259 -9.53472
upperneck 23.894 -1.20035 4.65247
head 12.7666 -0.7676 3.15616
rclavicle 8.34896e-015 3.33958e-014
rhumerus -25.3287 -27.9229 -38.154
rradius 44.7044
rwrist 4.33506
rhand -34.3925 -3.25586
rfingers 7.12502
rthumb -7.5584 -33.1008
lclavicle 8.34896e-015 3.33958e-014
lhumerus -28.4534 31.5232 38.6533
lradius 41.6396
lwrist 24.9191
lhand -19.7131 37.6589
lfingers 7.12502
lthumb 6.61676 67.5355
rfemur -15.1299 -2.02721 13.7899
rtibia 38.0881
rfoot 10.6009 -7.13846
rtoes 16.6688
lfemur -13.4104 3.81171 -15.4104
ltibia 33.2757
lfoot 14.8679 -12.6702
ltoes -30.4615
339
root -0.911917 19.3664 -0.636522 2.06693 3.06555 0.0954419
lowerback 4.00496 -1.17348 -1.95205
upperback -1.3123 -1.5739 2.90581
thorax -3.46751 -0.708804 4.21257
lowerneck -28.5167 -2.92722 -9.56329
upperneck 24.3063 -1.33352 4.57716
head 12.9672 -0.849004 3.11651
rclavicle -2.96189e-014 1.11319e-014
rhumerus -24.2499 -28.188 -35.973
rradius 45.457
rwrist 4.12098
rhand -34.1901 -3.41568
rfingers 7.12502
rthumb -7.36307 -33.2676
lclavicle -2.96189e-014 1.11319e-014
lhumerus -27.3216 31.3337 36.6056
lradius 42.0826
lwrist 24.5013
lhand -19.9233 36.984
lfingers 7.12502
lthumb 6.41389 66.8668
rfemur -14.9911 -2.24161 13.3647
rtibia 37.5356
rfoot 8.72711 -6.26924
rtoes 13.7346
lfemur -13.3378 3.90917 -15.04
ltibia 33.2564
lfoot 13.0833 -10.9162
ltoes -28.9166
340
root -0.898587 19.4509 -0.627455 2.13471 3.05678 0.14209
lowerback 3.95839 -1.15929 -1.89775
upperback -1.48744 -1.54963 2.90124
thorax -3.62637 -0.692542 4.17805
lowerneck -28.273 -2.84286 -9.38385
upperneck 24.4422 -1.22245 4.25736
head 12.9638 -0.834308 2.98309
rclavicle -4.68386e-015 -6.36111e-015
rhumerus -23.0515 -28.6063 -33.8426
rradius 46.0832
rwrist 4.17024
rhand -33.8172 -3.81515
rfingers 7.12502
rthumb -7.00312 -33.6793
lclavicle -4.68386e-015 -6.36111e-015
lhumerus -26.1386 30.9829 34.5233
lradius 42.4602
lwrist 24.3647
lhand -20.3377 36.6086
lfingers 7.12502
lthumb 6.01375 66.5033
rfemur -14.8032 -2.57912 12.8512
rtibia 37.0489
rfoot 6.93923 -5.38304
rtoes 12.4347
lfemur -13.2544 3.94889 -14.7124
ltibia 33.3981
lfoot 11.1314 -8.99077
ltoes -27.5585
341
root -0.886681 19.5234 -0.622515 2.07006 3.11278 0.205962
lowerback 4.18238 -1.14938 -1.93675
upperback -1.69418 -1.53589 2.93848
thorax -3.96716 -0.674819 4.24989
lowerneck -27.8202 -2.62889 -9.17938
upperneck 24.5046 -0.946453 3.89672
head 12.8775 -0.749757 2.85814
rclavicle 1.25483e-014 -9.54166e-015
rhumerus -21.7695 -28.7831 -31.7117
rradius 46.6373
rwrist 3.88882
rhand -33.6856 -3.91787
rfingers 7.12502
rthumb -6.87606 -33.7862
lclavicle 1.25483e-014 -9.54166e-015
lhumerus -25.0161 30.3468 32.5319
lradius 42.9947
lwrist 24.2522
lhand -20.403 36.8058
lfingers 7.12502
lthumb 5.95077 66.7022
rfemur -14.4503 -2.87416 12.3136
rtibia 36.5704
rfoot 5.42448 -4.44786
rtoes 12.699
lfemur -13.0492 3.9708 -14.3571
ltibia 33.5912
lfoot 9.22411 -7.16485
ltoes -28.5554
342
root -0.876063 19.5867 -0.619945 1.96152 3.18298 0.150006
lowerback 4.45187 -1.14403 -1.86587
upperback -1.83225 -1.52259 2.97538
thorax -4.26553 -0.661765 4.25911
lowerneck -27.8111 -2.54474 -9.21241
upperneck 24.9421 -0.836962 3.96494
head 13.0456 -0.706302 2.92128
rclavicle -9.37394e-015 3.02153e-014
rhumerus -20.3329 -29.0413 -29.7556
rradius 47.1086
rwrist 3.61279
rhand -33.8059 -4.03773
rfingers 7.12502
rthumb -6.99221 -33.9022
lclavicle -9.37394e-015 3.02153e-014
lhumerus -23.817 29.8586 30.5087
lradius 43.5579
lwrist 23.8173
lhand -19.9004 36.3192
lfingers 7.12502
lthumb 6.43593 66.2014
rfemur -14.0618 -3.04481 11.9206
rtibia 36.0596
rfoot 4.00226 -3.63624
rtoes 12.5658
lfemur -12.8174 4.06641 -13.8551
ltibia 33.777
lfoot 7.81416 -5.49293
ltoes -30.8973
343
root -0.865596 19.6453 -0.620085 1.7773 3.18874 0.178077
lowerback 4.78132 -1.10199 -1.83066
upperback -1.88081 -1.46616 2.94561
thorax -4.50948 -0.629599 4.21499
lowerneck -27.9757 -2.54777 -9.24445
upperneck 25.3808 -0.830917 4.027
head 13.2578 -0.708345 2.96391
rclavicle 1.34552e-014 -1.19271e-014
rhumerus -18.7583 -29.4225 -27.8964
rradius 47.5308
rwrist 3.23212
rhand -34.3141 -4.19637
rfingers 7.12502
rthumb -7.48274 -34.044
lclavicle 1.34552e-014 -1.19271e-014
lhumerus -22.3585 29.6067 28.5375
lradius 44.038
lwrist 23.4683
lhand -19.336 35.8265
lfingers 7.12502
lthumb 6.98086 65.6914
rfemur -13.607 -3.18899 11.3741
rtibia 35.5187
rfoot 2.85771 -3.30555
rtoes 11.82
lfemur -12.4737 4.05488 -13.4168
ltibia 33.8914
lfoot 7.06593 -3.64307
ltoes -30.8905
344
root -0.855826 19.6972 -0.624561 1.66263 3.15593 0.236718
lowerback 5.1322 -1.06583 -1.86033
upperback -1.9725 -1.42016 2.9485
thorax -4.8079 -0.59858 4.24412
lowerneck -28.0936 -2.526 -9.16911
upperneck 25.6747 -0.780978 3.90057
head 13.3981 -0.704662 2.91808
rclavicle 2.54437e-014 9.54166e-015
rhumerus -17.1229 -29.8992 -26.0094
rradius 47.809
rwrist 3.16049
rhand -34.3009 -4.09715
rfingers 7.12502
rthumb -7.47 -33.9453
lclavicle 2.54437e-014 9.54166e-015
lhumerus -20.9272 29.3649 26.5132
lradius 44.3678
lwrist 23.143
lhand -18.9502 35.8149
lfingers 7.12502
lthumb 7.35322 65.6672
rfemur -13.2562 -3.09902 10.7858
rtibia 34.9378
rfoot 1.8192 -3.64757
rtoes 9.46802
lfemur -12.2076 3.99364 -13.0141
ltibia 33.9119
lfoot 6.83157 -2.22722
ltoes -30.6325
